PathFileType	4	(X/Y/Z)	S01_0010_Gait_markers.trc
DataRate	CameraRate	NumFrames	NumMarkers	Units	OrigDataRate	OrigDataStartFrame	OrigNumFrames
250.000000	250.000000	4	54	mm	250.000000	221	354
Frame#	Time	HEAD_ANT			R_HEAD			L_HEAD			C7			R_BACK			L_BACK			STERNUM			R_ACROMION			R_HUM_PROX			R_HUM_ANT			R_HUM_POST			R_ELBOW_LAT			R_ELBOW_MED			R_FOREARM			R_WIRST_LAT			R_WRITS_MED			R_HAND			L_ACROMION			L_HUM_PROX			L_HUM_ANT			L_HUM_POST			L_ELBOW_LAT			L_ELBOW_MED			L_FOREARM			L_WRIST_LAT			L_WIRST_MED			L_HAND			R_ILIAC			SACRUM			L_ILIAC			R_GTROCH			R_THIGH__1			R_THIGH_2			R_THIGH_3			R_THIGH_4			R_SHANK_1			R_SHANK_2			R_SHANK_3			R_SHANK_4			R_HEEL			R_FOOT_LAT			R_FOOT_MED			L_GTROCH			L_THIGH_1			L_THIGH_2			L_THIGH_3			L_THIGH_4			L_SHANK_1			L_SHANK_2			L_SHANK_3			L_SHANK_4			L_HEEL			L_FOOT_LAT			L_FOOT_MED			
		X1	Y1	Z1	X2	Y2	Z2	X3	Y3	Z3	X4	Y4	Z4	X5	Y5	Z5	X6	Y6	Z6	X7	Y7	Z7	X8	Y8	Z8	X9	Y9	Z9	X10	Y10	Z10	X11	Y11	Z11	X12	Y12	Z12	X13	Y13	Z13	X14	Y14	Z14	X15	Y15	Z15	X16	Y16	Z16	X17	Y17	Z17	X18	Y18	Z18	X19	Y19	Z19	X20	Y20	Z20	X21	Y21	Z21	X22	Y22	Z22	X23	Y23	Z23	X24	Y24	Z24	X25	Y25	Z25	X26	Y26	Z26	X27	Y27	Z27	X28	Y28	Z28	X29	Y29	Z29	X30	Y30	Z30	X31	Y31	Z31	X32	Y32	Z32	X33	Y33	Z33	X34	Y34	Z34	X35	Y35	Z35	X36	Y36	Z36	X37	Y37	Z37	X38	Y38	Z38	X39	Y39	Z39	X40	Y40	Z40	X41	Y41	Z41	X42	Y42	Z42	X43	Y43	Z43	X44	Y44	Z44	X45	Y45	Z45	X46	Y46	Z46	X47	Y47	Z47	X48	Y48	Z48	X49	Y49	Z49	X50	Y50	Z50	X51	Y51	Z51	X52	Y52	Z52	X53	Y53	Z53	X54	Y54	Z54	

222	0.884	1366.698120117188	1747.615966796875	-341.2380981445309	1306.635498046875	1702.494140625	-259.1943969726559	1304.812377929688	1698.3212890625	-407.7702941894527	1166.836791992188	1531.391845703125	-330.9643859863278	1095.90966796875	1335.675659179688	-257.9217529296872	1096.269165039062	1334.94091796875	-398.1505126953122	1347.100341796875	1371.022338867188	-322.3053894042966	1241.337158203125	1489.019653320312	-155.6817016601559	1197.596313476562	1333.80615234375	-58.49159622192353	1254.696411132812	1245.980834960938	-51.29076766967746	1133.653442382812	1253.603881835938	-45.75583267211886	1176.929443359375	1145.123168945312	-33.40939331054662	1152.892700195312	1139.736328125	-113.064888000488	1274.630493164062	959.4459838867188	-34.3336830139158	1309.092041015625	891.602783203125	-74.77895355224589	1244.450927734375	870.1079711914062	-30.86133575439434	1314.288208007812	806.0137939453125	-17.18947029113752	1250.003784179688	1480.638549804688	-494.9774475097653	1226.673095703125	1311.5947265625	-587.1526489257809	1289.556274414062	1231.043212890625	-587.5433959960935	1167.0751953125	1233.32666015625	-608.6107788085935	1229.631103515625	1127.717529296875	-614.2208862304685	1174.965942382812	1124.395874023438	-558.4974365234373	1338.169677734375	957.1490478515626	-587.9981689453123	1367.367919921875	900.1137695312501	-532.0809936523435	1327.458129882812	874.3408203125001	-595.555236816406	1403.964599609375	819.0210571289064	-573.080627441406	1244.594360351562	1086.090209960938	-147.049621582031	1118.240600585938	1057.2646484375	-319.7257690429685	1251.084106445312	1078.9892578125	-489.5967102050779	1196.609985351562	933.0875244140625	-128.5710449218748	1283.854736328125	655.438232421875	-140.9609985351561	1337.074829101562	677.9544067382812	-134.3204193115233	1355.15234375	574.8388671875	-160.0538940429686	1291.266845703125	574.4338989257812	-155.866973876953	1192.967041015625	405.2522277832032	-149.095474243164	1225.700439453125	355.5513000488282	-160.6289672851562	1172.255981445312	288.6096191406251	-177.9193267822265	1125.806030273438	333.0033569335938	-167.2189788818359	971.0503540039062	189.4003143310547	-250.4517211914062	1078.621826171875	70.39097595214848	-163.871597290039	1134.159912109375	53.20789718627935	-249.5195007324219	1215.653564453125	966.7545776367189	-495.6651611328123	1320.989990234375	676.6664428710939	-463.2283325195311	1268.701049804688	693.6751098632814	-485.3504943847655	1255.175659179688	591.5698242187501	-449.351593017578	1317.684448242188	597.9823608398439	-436.242462158203	1264.896484375	325.7252807617189	-425.6190490722656	1206.820190429688	310.3748474121095	-431.4850158691406	1192.437866210938	226.3746643066407	-412.7643737792968	1255.992431640625	225.7978515625001	-399.2687377929687	1126.859252929688	48.08337402343758	-336.7309265136719	1301.728759765625	20.90745544433603	-406.4462585449219	1337.571899414062	26.34922599792487	-297.4467163085938	
223	0.888	1372.241333007812	1748.149536132812	-341.0669250488277	1312.174194335938	1702.95751953125	-259.2594909667965	1310.195190429688	1698.95703125	-407.6187133789059	1172.369384765625	1531.98193359375	-331.347991943359	1101.353515625	1336.214233398438	-258.111389160156	1101.849243164062	1335.539428710938	-398.6549072265622	1352.446166992188	1371.786865234375	-322.2752380371091	1246.572021484375	1489.498046875	-155.6207427978512	1202.215698242188	1334.433837890625	-58.51789474487275	1259.181274414062	1246.523071289062	-50.76383590698214	1138.017211914062	1254.375366210938	-46.2399482727048	1181.289794921875	1145.8828125	-33.36190414428685	1157.55224609375	1140.43408203125	-113.158134460449	1279.165405273438	960.130615234375	-34.1110267639158	1313.880981445312	892.4452514648438	-74.5596923828123	1249.265869140625	870.7747192382812	-30.85985565185528	1319.169555664062	806.7766723632812	-16.87325859069806	1255.658447265625	1481.2412109375	-495.058929443359	1232.610595703125	1312.18603515625	-587.3399047851559	1295.663452148438	1232.087768554688	-588.214660644531	1173.2119140625	1233.950805664063	-608.7689819335935	1236.000854492188	1128.408081054688	-614.690002441406	1181.31298828125	1124.997802734375	-558.9001464843748	1345.206787109375	958.2805175781251	-587.8365478515623	1374.660400390625	901.4711914062501	-531.6703491210935	1334.729736328125	875.3721313476564	-595.3031005859373	1411.568359375	820.6199340820314	-572.6212768554685	1250.3388671875	1086.968994140625	-147.235900878906	1123.737670898438	1057.886840820312	-319.7364807128904	1256.605834960938	1079.504760742188	-489.9528198242185	1202.832763671875	933.7567749023438	-128.5773010253904	1292.216064453125	656.4263305664062	-141.0292510986327	1345.235473632812	679.23974609375	-134.5460815429686	1364.075805664062	576.5199584960938	-160.5532836914061	1298.762451171875	574.873779296875	-156.0527801513671	1204.048950195312	404.3843994140626	-149.4705047607421	1237.291748046875	354.7895812988282	-160.1976623535155	1185.21728515625	287.7932128906251	-178.1860198974609	1136.6953125	328.5096435546876	-170.5909118652343	985.5799560546875	184.0125885009766	-250.5945129394531	1096.60400390625	68.39552307128911	-163.6665649414062	1152.794067382812	52.49039459228521	-249.1418762207031	1220.544067382812	967.2982788085939	-495.6658020019529	1323.538818359375	676.4749755859376	-463.6095581054686	1271.514404296875	693.9893188476564	-485.4487915039061	1257.073364257812	592.0817871093751	-449.370635986328	1319.826782226562	597.7832641601564	-435.970001220703	1265.872924804688	325.6102600097657	-425.3454284667968	1206.886352539062	311.1914672851564	-431.7978820800781	1192.926025390625	226.8304290771485	-412.5295715332031	1256.330444335938	226.0576171875001	-399.3438110351562	1126.817138671875	48.65568542480477	-336.9345397949219	1301.77587890625	20.90239524841317	-406.4308471679688	1337.6865234375	26.37668228149421	-297.5007629394531	
224	0.892	1377.8203125	1748.56103515625	-340.9057312011715	1317.700927734375	1703.324829101562	-259.1062622070309	1315.892211914062	1699.602905273438	-407.5857238769527	1177.898071289062	1532.729125976562	-331.3431396484372	1106.792236328125	1336.823364257812	-258.5599670410153	1107.360595703125	1336.07177734375	-399.3937988281247	1357.862426757812	1372.4462890625	-322.6333312988278	1251.837280273438	1489.9287109375	-155.7392272949215	1206.85693359375	1334.9853515625	-58.6506576538083	1263.7236328125	1247.073974609375	-50.49585723876925	1142.593505859375	1254.967041015625	-46.60354995727511	1185.396606445312	1146.288818359375	-33.30604171752904	1162.247802734375	1140.904174804688	-113.2305068969724	1283.897827148438	960.633544921875	-33.80981826782205	1318.757080078125	893.0765380859375	-74.29170989990214	1254.048706054688	871.4237060546875	-30.80473899841289	1324.082153320312	807.4327392578125	-16.57740020751935	1261.290405273438	1481.935424804688	-495.0361022949215	1238.704711914062	1312.977294921875	-587.4765624999997	1301.896362304688	1232.7412109375	-588.3307495117185	1179.343383789062	1234.440185546875	-609.332336425781	1242.492553710938	1128.819702148438	-615.0468749999998	1187.50537109375	1125.491821289063	-559.338195800781	1352.252197265625	959.3214721679689	-587.6829833984373	1382.064331054688	902.9151000976564	-531.2429199218748	1342.138061523438	876.4854125976564	-594.808654785156	1419.201782226562	822.2189941406251	-572.119201660156	1255.938354492188	1087.876708984375	-147.8174896240232	1129.058837890625	1058.482543945312	-319.883117675781	1260.327514648438	1079.360229492188	-490.813537597656	1209.02099609375	934.411865234375	-128.457321166992	1300.499755859375	657.8582763671875	-140.9784088134764	1353.433471679688	680.7659912109375	-134.971725463867	1372.627319335938	578.0740966796875	-161.0913696289061	1307.448852539062	576.0060424804688	-156.3892669677733	1215.197387695312	403.6240844726563	-149.6022033691405	1248.597290039062	354.5987548828126	-160.5225982666015	1198.232299804688	286.6287231445313	-178.5349578857421	1149.072998046875	326.5163269042969	-170.8233032226562	1000.407470703125	178.4518737792969	-250.4745635986328	1114.640747070312	66.27178192138676	-163.3482818603515	1170.119140625	52.18522262573248	-247.9549560546875	1225.48291015625	967.4708862304689	-495.8400268554685	1326.20458984375	676.3391113281251	-463.5921936035155	1274.281005859375	694.3807983398439	-485.6282348632811	1258.932739257812	592.5455322265626	-449.2046508789061	1320.786376953125	597.2774658203126	-436.554962158203	1266.521606445312	325.7396240234376	-425.4644470214843	1207.47216796875	311.5621948242189	-431.8179626464843	1193.333984375	227.2317047119141	-412.3463134765624	1256.672973632812	226.3403778076173	-399.5018615722656	1126.970947265625	49.09653854370125	-336.9507751464844	1301.77001953125	20.88547325134286	-406.3848266601562	1337.761108398438	26.38630294799811	-297.5567321777344	
225	0.896	1383.276245117188	1749.154296875	-340.5980224609371	1323.399536132812	1703.709106445312	-258.845794677734	1321.128662109375	1700.114624023438	-407.400238037109	1183.380493164062	1533.17529296875	-331.4638977050778	1112.32177734375	1337.262329101562	-258.8183898925778	1113.095581054688	1336.69775390625	-399.8818359374997	1363.294921875	1373.078857421875	-322.6708984374997	1257.184936523438	1490.344970703125	-155.7898559570309	1211.389526367188	1335.468872070312	-58.8637809753415	1268.194458007812	1247.590576171875	-50.08536529540988	1147.133666992188	1255.4306640625	-47.06722259521457	1190.6201171875	1146.856567382812	-33.36937332153295	1167.02099609375	1141.38671875	-113.2480010986326	1288.459228515625	961.0348510742188	-33.56290817260721	1323.754760742188	893.7869262695312	-73.73673248290996	1258.657470703125	871.854736328125	-30.74945831298809	1329.062622070312	808.14697265625	-16.3135566711424	1266.876342773438	1482.514404296875	-495.0324401855465	1244.866821289062	1313.59326171875	-587.7850341796872	1308.0380859375	1233.664916992188	-588.3969726562498	1185.589965820312	1234.998413085938	-609.749572753906	1249.285278320312	1129.332397460938	-615.141662597656	1193.802734375	1126.17822265625	-559.839660644531	1359.386474609375	960.6552124023439	-587.4438476562498	1389.826049804688	904.8826293945314	-531.6471557617185	1349.538208007812	877.4520874023439	-594.1940307617185	1426.904663085938	823.5625610351564	-571.6016845703123	1261.588012695312	1088.76123046875	-148.2169189453122	1134.4794921875	1059.150512695312	-319.9142150878904	1265.660278320312	1079.594482421875	-490.824035644531	1215.29248046875	935.200927734375	-128.2734680175779	1308.307495117188	658.2987670898438	-141.3266448974608	1361.210815429688	682.2777709960938	-134.8747253417967	1381.33056640625	579.6138916015625	-161.5992126464842	1316.354370117188	577.2167358398438	-156.6937713623045	1226.226806640625	402.8442382812501	-150.0124511718749	1260.228149414062	354.3778686523438	-160.6964416503905	1211.711059570312	285.7753906250001	-178.7991638183593	1161.837158203125	325.9465637207032	-170.6587829589843	1015.305236816406	172.7855682373047	-250.4546203613281	1132.954833984375	64.24293518066411	-163.2054595947265	1188.571411132812	51.48973464965826	-247.7546691894531	1230.029052734375	968.0233764648439	-496.1662902832029	1328.797607421875	676.1278686523439	-463.754669189453	1277.029296875	694.8234863281251	-485.8167114257811	1260.845458984375	593.0208129882814	-449.1809082031249	1322.5869140625	597.2076416015626	-436.8466796874999	1267.017333984375	326.0098571777345	-425.5655822753906	1208.067260742188	312.1095581054689	-431.7129211425781	1193.592407226562	227.4239044189454	-412.4617614746093	1257.028564453125	226.6287536621095	-399.6463623046874	1126.867919921875	50.5292053222657	-336.6613464355469	1301.753295898438	20.89884185791025	-406.3775024414062	1337.866088867188	26.44456100463874	-297.6444091796875	
